# xmcd
#
# Track frame offsets:
#	150
#	17152
#	32830
#	50146
#	67734
#	85130
#	98900
#	113179
#	132099
#
# Disc length: 1965 seconds
#
# Revision: 1
# Processed by: cddbd v1.5.2PL0 Copyright (c) Steve Scherf et al.
# Submitted via: audiograbber 1.83.01
#
DISCID=7107ab09
DTITLE=Various Artist - CDX 072
DYEAR=1994
DGENRE=Country
TTITLE0=KD Lang - Curious Soul Astray
TTITLE1=Sammy Kershaw - I Can't Reach Her Anymore
TTITLE2=Lee Roy Parnell - I'm Holding My Own
TTITLE3=Neal McCoy - No Doubt About It
TTITLE4=Uncle Tupelo - No Sense In Lovin'
TTITLE5=The Bellamy Brothers - Not
TTITLE6=Wayne Warner - Something 'Bout You
TTITLE7=Joe Diffie - White Lightnin' [Dance Trax]
TTITLE8=Pam Perry - One Good Man
EXTD=
EXTT0=
EXTT1=
EXTT2=
EXTT3=
EXTT4=
EXTT5=
EXTT6=
EXTT7=
EXTT8=
PLAYORDER=
